<?xml version="1.0" standalone="no"?>
<!DOCTYPE svg PUBLIC "-//W3C//DTD SVG 20010904//EN"
 "http://www.w3.org/TR/2001/REC-SVG-20010904/DTD/svg10.dtd">
<svg version="1.0" xmlns="http://www.w3.org/2000/svg"
 width="1008.000000pt" height="1008.000000pt" viewBox="0 0 1008.000000 1008.000000"
 preserveAspectRatio="xMidYMid meet">
<metadata>
Created by potrace 1.14, written by Peter Selinger 2001-2017
</metadata>
<g transform="translate(0.000000,1008.000000) scale(0.100000,-0.100000)"
fill="#000000" stroke="none">
<path d="M5010 10063 c-8 -3 -17 -9 -20 -12 -3 -3 -30 -19 -60 -35 -30 -16
-57 -31 -60 -35 -3 -3 -21 -14 -40 -23 -19 -10 -62 -33 -95 -53 -33 -20 -68
-38 -77 -42 -10 -3 -18 -9 -18 -14 0 -5 -4 -9 -9 -9 -5 0 -48 -22 -96 -50 -48
-27 -91 -50 -96 -50 -5 0 -9 -3 -9 -8 0 -4 -15 -13 -32 -21 -18 -8 -35 -17
-38 -21 -3 -4 -17 -13 -32 -21 -15 -8 -94 -52 -175 -99 -81 -47 -170 -98 -198
-114 -27 -15 -107 -61 -177 -102 -69 -41 -131 -74 -137 -74 -6 0 -11 -4 -11
-8 0 -5 -19 -17 -41 -28 -23 -10 -47 -23 -53 -29 -6 -6 -31 -21 -56 -34 -25
-12 -70 -37 -100 -55 -30 -19 -98 -58 -150 -88 -314 -181 -499 -288 -530 -304
-19 -11 -36 -22 -38 -26 -2 -5 -7 -8 -12 -8 -4 0 -99 -53 -211 -118 -112 -65
-231 -133 -264 -152 -33 -18 -67 -38 -75 -45 -8 -7 -44 -27 -80 -46 -36 -19
-67 -37 -70 -40 -3 -3 -36 -23 -75 -44 -38 -21 -71 -42 -73 -46 -2 -5 -12 -9
-23 -9 -10 0 -19 -4 -19 -10 0 -5 -5 -10 -10 -10 -6 0 -40 -18 -76 -40 -36
-22 -70 -40 -75 -40 -5 0 -9 -3 -9 -8 0 -4 -15 -13 -33 -21 -17 -8 -34 -17
-37 -20 -3 -4 -16 -12 -30 -18 -14 -7 -47 -26 -75 -43 -27 -17 -61 -36 -75
-43 -14 -6 -27 -14 -30 -17 -3 -3 -20 -13 -38 -23 -17 -10 -98 -57 -180 -104
-81 -47 -167 -97 -192 -111 -25 -14 -58 -33 -75 -42 -76 -43 -112 -66 -130
-83 -20 -18 -20 -33 -22 -2527 l-3 -2509 23 -24 c18 -19 158 -106 227 -140 8
-4 29 -16 45 -27 17 -11 44 -26 60 -35 17 -8 53 -29 80 -46 28 -16 58 -33 68
-36 9 -3 17 -8 17 -12 0 -4 20 -15 45 -26 25 -11 45 -23 45 -27 0 -5 7 -8 15
-8 8 0 15 -4 15 -10 0 -5 5 -10 11 -10 6 0 48 -22 94 -50 46 -27 86 -50 90
-50 3 0 26 -14 50 -30 24 -17 46 -30 50 -30 3 0 30 -16 60 -35 30 -19 55 -31
55 -27 0 4 4 3 8 -3 14 -20 71 -45 100 -45 18 0 43 10 59 24 l29 24 47 -29
c26 -16 49 -29 52 -29 2 0 19 -10 37 -23 30 -20 32 -25 24 -49 -11 -31 5 -71
39 -100 28 -23 100 -18 127 9 17 18 24 19 42 10 12 -7 23 -15 26 -18 3 -3 30
-19 60 -36 33 -18 54 -36 52 -44 -12 -45 -3 -83 25 -108 27 -24 85 -59 140
-85 13 -6 23 -15 23 -19 0 -5 5 -5 10 -2 6 3 10 2 10 -3 0 -5 8 -12 18 -15 19
-7 94 -50 134 -78 14 -11 29 -19 33 -19 3 0 60 -31 125 -70 65 -38 144 -84
176 -102 33 -17 79 -44 103 -60 25 -15 51 -28 58 -28 7 0 13 -4 13 -10 0 -5 7
-10 15 -10 8 0 15 -4 15 -10 0 -5 5 -10 10 -10 14 0 223 -121 232 -135 4 -5 8
-7 8 -3 0 4 25 -8 55 -27 30 -19 56 -35 59 -35 3 0 35 -18 71 -40 36 -22 68
-40 71 -40 3 0 25 -12 48 -27 22 -16 55 -35 71 -43 17 -8 36 -21 43 -28 7 -6
18 -12 23 -12 5 0 33 -16 63 -35 30 -19 60 -35 66 -35 5 0 10 -5 10 -12 0 -6
3 -8 6 -5 4 4 19 -2 33 -12 14 -10 47 -30 72 -43 77 -43 94 -53 99 -58 3 -3
21 -13 40 -23 59 -31 95 -52 100 -57 3 -3 25 -16 50 -29 25 -14 47 -27 50 -30
3 -3 21 -14 40 -23 19 -10 53 -29 75 -43 22 -13 54 -31 70 -40 45 -23 140 -78
156 -91 32 -25 93 -46 119 -41 15 3 52 20 81 38 30 18 79 45 109 62 30 16 62
36 71 43 9 8 18 12 21 9 3 -3 11 1 18 10 7 8 19 15 26 15 8 0 14 5 14 10 0 6
4 10 9 10 5 0 30 12 56 27 25 16 68 40 93 54 26 14 88 50 137 79 50 29 108 64
130 77 22 13 52 29 68 35 15 7 27 16 27 20 0 4 4 8 9 8 13 0 155 82 159 92 2
4 12 8 23 8 10 0 19 4 19 8 0 4 19 18 43 30 23 12 67 36 98 54 30 18 106 62
168 98 62 36 129 75 149 87 20 12 44 26 52 30 57 30 176 98 180 102 3 3 25 17
50 30 25 13 53 31 63 39 9 8 17 12 17 9 0 -3 36 16 81 43 44 28 82 50 84 50 2
0 39 21 82 47 43 25 103 60 133 76 30 17 57 33 60 36 3 4 24 15 47 26 24 11
43 23 43 28 0 4 6 7 14 7 7 0 19 7 26 15 7 8 16 12 21 9 5 -3 9 -1 9 4 0 4 21
19 48 32 26 13 50 28 53 33 3 5 8 7 10 6 2 -2 32 14 67 34 35 20 67 37 72 37
4 0 10 4 12 8 2 4 41 29 88 55 47 27 92 52 100 58 8 5 26 15 40 21 14 7 27 15
30 18 9 10 65 41 83 47 9 3 17 9 17 14 0 5 9 9 20 9 11 0 20 4 20 8 0 8 51 36
59 32 2 -1 7 2 10 8 3 5 38 26 76 47 39 21 72 41 75 45 3 3 23 14 45 25 22 11
42 23 45 26 3 3 17 12 32 20 23 12 194 109 297 169 118 68 149 87 166 97 11 7
27 16 35 20 28 13 135 76 140 82 5 6 75 44 128 70 17 8 32 19 32 23 0 4 5 8
10 8 6 0 21 9 33 21 l22 20 3 2500 c2 2247 1 2503 -13 2530 -9 16 -24 33 -33
36 -9 3 -24 12 -32 18 -8 7 -36 24 -61 38 -25 14 -132 75 -238 136 -106 61
-196 111 -201 111 -4 0 -10 4 -12 8 -1 4 -30 23 -63 41 -114 65 -124 70 -163
95 -22 14 -43 22 -46 19 -3 -4 -6 -2 -6 4 0 5 -18 18 -40 28 -22 10 -40 23
-40 28 0 6 -3 8 -6 4 -4 -3 -26 7 -50 23 -23 17 -45 30 -49 30 -4 0 -39 19
-78 43 -40 24 -79 47 -87 50 -8 4 -33 18 -55 32 -22 14 -47 28 -55 32 -8 4
-51 29 -95 56 -44 28 -86 50 -92 50 -7 0 -13 3 -13 6 0 3 -21 17 -47 31 -27
13 -50 27 -53 31 -3 3 -30 19 -60 35 -30 16 -66 36 -80 45 -25 16 -125 75
-207 120 -23 13 -75 44 -115 68 -89 55 -152 62 -187 22 -19 -21 -23 -23 -39
-10 -9 8 -35 24 -57 34 -22 11 -42 23 -45 26 -3 3 -15 11 -27 17 -17 10 -24
35 -13 50 8 8 4 31 -7 54 -29 59 -113 73 -162 26 -14 -12 -26 -17 -30 -11 -3
6 -11 12 -16 14 -6 2 -39 20 -73 39 -62 34 -63 36 -58 69 10 65 -12 89 -156
172 -156 89 -352 202 -493 284 -55 32 -113 66 -130 75 -16 10 -84 49 -150 87
-66 38 -129 74 -140 81 -11 6 -55 31 -97 56 -43 25 -82 46 -88 46 -5 0 -10 5
-10 12 0 6 -3 8 -6 5 -4 -4 -19 2 -33 12 -29 21 -123 76 -161 94 -14 6 -27 14
-30 17 -20 22 -79 34 -110 23z"/>
</g>
</svg>
